<mxfile host="app.diagrams.net" modified="2024-01-31T17:27:56.659Z" agent="Mozilla/5.0 (X11; Ubuntu; Linux x86_64; rv:109.0) Gecko/20100101 Firefox/116.0" etag="pP8zzVuRZGMT8xMqYx7-" version="23.1.0" type="device">
  <diagram name="Page-1" id="ytFeEzNIVxxblVFD13DX">
    <mxGraphModel dx="1533" dy="370" grid="1" gridSize="10" guides="1" tooltips="1" connect="1" arrows="1" fold="1" page="1" pageScale="1" pageWidth="850" pageHeight="1100" math="0" shadow="0">
      <root>
        <mxCell id="0" />
        <mxCell id="1" parent="0" />
        <mxCell id="bQPEapgq1LY4Ff4V_flg-1" value="" style="rounded=0;whiteSpace=wrap;html=1;" vertex="1" parent="1">
          <mxGeometry x="-80" y="220" width="310" height="40" as="geometry" />
        </mxCell>
        <mxCell id="bQPEapgq1LY4Ff4V_flg-3" value="4" style="ellipse;whiteSpace=wrap;html=1;aspect=fixed;fillColor=#f66151;fontFamily=Courier New;" vertex="1" parent="1">
          <mxGeometry x="110" y="230" width="20" height="20" as="geometry" />
        </mxCell>
        <mxCell id="bQPEapgq1LY4Ff4V_flg-4" value="&lt;font color=&quot;#ffffff&quot;&gt;3&lt;/font&gt;" style="ellipse;whiteSpace=wrap;html=1;aspect=fixed;strokeColor=#000000;gradientColor=none;fillColor=#5e5c64;fontFamily=Courier New;" vertex="1" parent="1">
          <mxGeometry x="140" y="230" width="20" height="20" as="geometry" />
        </mxCell>
        <mxCell id="bQPEapgq1LY4Ff4V_flg-5" value="2" style="ellipse;whiteSpace=wrap;html=1;aspect=fixed;fontFamily=Courier New;" vertex="1" parent="1">
          <mxGeometry x="170" y="230" width="20" height="20" as="geometry" />
        </mxCell>
        <mxCell id="bQPEapgq1LY4Ff4V_flg-6" value="1" style="ellipse;whiteSpace=wrap;html=1;aspect=fixed;fillColor=#8ff0a4;fontFamily=Courier New;" vertex="1" parent="1">
          <mxGeometry x="200" y="230" width="20" height="20" as="geometry" />
        </mxCell>
        <mxCell id="bQPEapgq1LY4Ff4V_flg-7" value="8" style="ellipse;whiteSpace=wrap;html=1;aspect=fixed;fillColor=#f5f5f5;fontColor=#333333;strokeColor=#666666;fontFamily=Courier New;" vertex="1" parent="1">
          <mxGeometry x="-10" y="230" width="20" height="20" as="geometry" />
        </mxCell>
        <mxCell id="bQPEapgq1LY4Ff4V_flg-8" value="7" style="ellipse;whiteSpace=wrap;html=1;aspect=fixed;fillColor=#f5f5f5;fontColor=#333333;strokeColor=#666666;fontFamily=Courier New;" vertex="1" parent="1">
          <mxGeometry x="20" y="230" width="20" height="20" as="geometry" />
        </mxCell>
        <mxCell id="bQPEapgq1LY4Ff4V_flg-9" value="6" style="ellipse;whiteSpace=wrap;html=1;aspect=fixed;fillColor=#f5f5f5;fontColor=#333333;strokeColor=#666666;fontFamily=Courier New;" vertex="1" parent="1">
          <mxGeometry x="50" y="230" width="20" height="20" as="geometry" />
        </mxCell>
        <mxCell id="bQPEapgq1LY4Ff4V_flg-10" value="&lt;font color=&quot;#ffffff&quot;&gt;5&lt;/font&gt;" style="ellipse;whiteSpace=wrap;html=1;aspect=fixed;fillColor=#5e5c64;strokeColor=#000000;fontFamily=Courier New;" vertex="1" parent="1">
          <mxGeometry x="80" y="230" width="20" height="20" as="geometry" />
        </mxCell>
        <mxCell id="bQPEapgq1LY4Ff4V_flg-11" value="10" style="ellipse;whiteSpace=wrap;html=1;aspect=fixed;fillColor=#f5f5f5;fontColor=#333333;strokeColor=#666666;fontFamily=Courier New;" vertex="1" parent="1">
          <mxGeometry x="-70" y="230" width="20" height="20" as="geometry" />
        </mxCell>
        <mxCell id="bQPEapgq1LY4Ff4V_flg-12" value="9" style="ellipse;whiteSpace=wrap;html=1;aspect=fixed;fillColor=#f5f5f5;fontColor=#333333;strokeColor=#666666;fontFamily=Courier New;" vertex="1" parent="1">
          <mxGeometry x="-40" y="230" width="20" height="20" as="geometry" />
        </mxCell>
        <mxCell id="bQPEapgq1LY4Ff4V_flg-14" value="" style="endArrow=none;html=1;rounded=0;strokeColor=#ffffff;strokeWidth=2;" edge="1" parent="1">
          <mxGeometry width="50" height="50" relative="1" as="geometry">
            <mxPoint x="205" y="220" as="sourcePoint" />
            <mxPoint x="215" y="220" as="targetPoint" />
          </mxGeometry>
        </mxCell>
        <mxCell id="bQPEapgq1LY4Ff4V_flg-15" value="" style="endArrow=none;html=1;rounded=0;strokeColor=#ffffff;strokeWidth=2;" edge="1" parent="1">
          <mxGeometry width="50" height="50" relative="1" as="geometry">
            <mxPoint x="-65" y="220" as="sourcePoint" />
            <mxPoint x="-55" y="220" as="targetPoint" />
          </mxGeometry>
        </mxCell>
        <mxCell id="bQPEapgq1LY4Ff4V_flg-16" value="" style="endArrow=none;html=1;rounded=0;strokeColor=#ffffff;strokeWidth=2;" edge="1" parent="1">
          <mxGeometry width="50" height="50" relative="1" as="geometry">
            <mxPoint x="230" y="240" as="sourcePoint" />
            <mxPoint x="230" y="230" as="targetPoint" />
          </mxGeometry>
        </mxCell>
        <mxCell id="bQPEapgq1LY4Ff4V_flg-17" value="" style="endArrow=none;html=1;rounded=0;strokeColor=#ffffff;strokeWidth=2;" edge="1" parent="1">
          <mxGeometry width="50" height="50" relative="1" as="geometry">
            <mxPoint x="-80" y="240" as="sourcePoint" />
            <mxPoint x="-80" y="230" as="targetPoint" />
          </mxGeometry>
        </mxCell>
        <mxCell id="bQPEapgq1LY4Ff4V_flg-20" value="&lt;i&gt;&lt;font style=&quot;font-size: 9px;&quot; face=&quot;Verdana&quot;&gt;Board port (male)&lt;br&gt;&lt;/font&gt;&lt;/i&gt;" style="text;html=1;strokeColor=none;fillColor=none;align=center;verticalAlign=middle;whiteSpace=wrap;rounded=0;" vertex="1" parent="1">
          <mxGeometry x="-80" y="260" width="310" height="20" as="geometry" />
        </mxCell>
      </root>
    </mxGraphModel>
  </diagram>
</mxfile>
